<?xml version="1.0" standalone="no"?>
<!DOCTYPE svg PUBLIC "-//W3C//DTD SVG 1.0//EN" "http://www.w3.org/TR/2001/REC-SVG-20010904/DTD/svg10.dtd">
<svg xmlns="http://www.w3.org/2000/svg" xmlns:xlink="http://www.w3.org/1999/xlink" id="body_1" width="93" height="70">

<defs>
        <clipPath  id="1">

            <path clip-rule="evenodd" d="M-31.76 673.53L1210.24 673.53L1210.24 2881.53L-31.76 2881.53z" />        </clipPath>
</defs>

<g transform="matrix(0.07891522 0 0 0.07891522 -0 14.797706)">
    <path d="M0 80C 0 35.81722 35.81722 0 80 0L80 0L432 0C 476.18277 0 512 35.81722 512 80L512 80L512 432C 512 476.18277 476.18277 512 432 512L432 512L80 512C 35.81722 512 0 476.18277 0 432L0 432L0 80z" stroke="none" fill="#02A8F5" fill-rule="nonzero" />
    <path d="M666.48 80C 666.48 35.81722 702.2972 0 746.48 0L746.48 0L1098.48 0C 1142.6627 0 1178.48 35.81722 1178.48 80L1178.48 80L1178.48 432C 1178.48 476.18277 1142.6627 512 1098.48 512L1098.48 512L746.48 512C 702.2972 512 666.48 476.18277 666.48 432L666.48 432L666.48 80z" stroke="none" fill="#02A8F5" fill-rule="nonzero" />
	<g>
        <path d="M666.48 80C 666.48 35.81722 702.2972 0 746.48 0L746.48 0L1098.48 0C 1142.6627 0 1178.48 35.81722 1178.48 80L1178.48 80L1178.48 432C 1178.48 476.18277 1142.6627 512 1098.48 512L1098.48 512L746.48 512C 702.2972 512 666.48 476.18277 666.48 432L666.48 432L666.48 80z" stroke="none" fill="#000000" fill-rule="nonzero" fill-opacity="0.49803922" />
	</g>
    <path d="M456 256C 456 311.2285 436.4738 358.36893 397.42136 397.42136C 358.36893 436.4738 311.2285 456 256 456C 200.77153 456 153.63107 436.4738 114.57864 397.42136C 75.526215 358.36893 56.000004 311.2285 56 256C 56.000004 200.77153 75.526215 153.63107 114.57864 114.57864C 153.63107 75.526215 200.77153 56.000004 256 56C 311.2285 56.000004 358.36893 75.526215 397.42136 114.57864C 436.4738 153.63107 456 200.77153 456 256C 456 258.32736 455.9594 260.654 455.87817 262.9799" stroke="none" fill="#FFFFFF" fill-rule="nonzero" />
    <path d="M250.68 363.39C 250.7342 364.1851 251.3653 364.8191 252.16014 364.87692C 252.95499 364.93478 253.67122 364.39886 253.84 363.62003C 258.58 338.34003 265.46 301.34003 281.26 285.54004C 305.52002 261.28003 346.36002 258.24005 379.98 253.84004C 380.56238 253.74709 380.99088 253.24477 380.99088 252.65504C 380.99088 252.06532 380.56238 251.563 379.98 251.47005L379.98 251.47005L329.66 243.47005C 312.51 238.94 293.78 232.74 281 220C 264.08 203.07 257.31 172.84 252.57 148.58C 252.41841 147.76677 251.73479 147.1598 250.90933 147.10556C 250.0839 147.05132 249.3267 147.56361 249.07 148.35C 245.24 160.20001 236.44 185.47 225.15001 207.81C 206.42001 238.81 165.15001 244.81 132.75 250.81C 131.72205 250.96965 130.96385 251.8547 130.96385 252.89499C 130.96385 253.93527 131.72205 254.82033 132.75 254.98C 149.11 257.69 167.39 261.53 183.07 267.06C 238.38 285.77 249 337 250.68 363.39z" stroke="none" fill="#02A8F5" fill-rule="nonzero" />
    <path d="M587.94 256L512 331.94L512 180.06L587.94 256L587.94 256" stroke="none" fill="#02A8F5" fill-rule="nonzero" />
    <path d="M922.73 251.13C 919.7412 251.122 916.87256 252.30576 914.75916 254.41914C 912.64575 256.53253 911.462 259.4012 911.47 262.39C 912.0566 297.23105 907.51807 331.96912 898 365.49C 896.26 370.69998 898.65 380.78998 908.84 380.78998C 914.08484 380.79678 918.69226 377.30957 920.11005 372.25998C 930.004 336.63672 934.8446 299.79996 934.49005 262.83C 934.4847 259.71814 933.24207 256.73618 931.0361 254.54143C 928.83 252.34668 925.84174 251.11934 922.73 251.13zM868.38 201.65001C 863.35803 197.5521 855.9662 198.29486 851.86 203.31001C 839.40485 218.75728 832.73425 238.0687 833 257.91C 833.31934 276.2224 831.85236 294.52228 828.62 312.55C 827.5896 318.86176 831.7322 324.85925 838 326.13C 847.81 327.84 851.22 318.89 851.21 316.69C 854.7283 297.16934 856.3325 277.3524 856 257.52C 856.1292 243.25217 860.9231 229.41841 869.65 218.12999C 871.7768 215.82552 872.84827 212.73973 872.6073 209.61314C 872.36633 206.48656 870.8348 203.60138 868.38 201.65zM921.27 171.26001C 913.8989 171.11917 906.5408 171.93599 899.38 173.69C 893.11 174.69 889.21 181.06 890.67 187.77C 891.30597 190.7529 893.1188 193.35297 895.6977 194.98125C 898.2766 196.60954 901.40344 197.1283 904.37 196.42C 909.9566 195.21982 915.656 194.62305 921.37 194.64C 958.1 195.18 988.44 224.64 989.07 260.25C 989.3071 278.74576 988.39197 297.238 986.33 315.62C 985.60004 322.02 990.23004 327.37 996.63 328.54C 1002.99994 329.12698 1008.6976 324.58127 1009.54 318.24002C 1011.7949 298.87888 1012.7737 279.38962 1012.47 259.90002C 1011.69 211.79 971 172 921.27 171.26z" stroke="none" fill="#FFFFFF" fill-rule="nonzero" fill-opacity="0.49803922" />
    <path d="M922.29 211.31C 892.01996 211.20999 871.6 234.22 872.04 260.59C 872.40405 283.91187 870.2177 307.20328 865.51996 330.05C 864.5989 334.1714 865.9702 338.46936 869.1082 341.2956C 872.24615 344.12186 876.66364 345.03775 880.66656 343.69205C 884.6695 342.34634 887.6366 338.94788 888.42993 334.8C 893.45135 310.4145 895.7986 285.55438 895.42993 260.65997C 895.2399 247.51997 904.69995 234.60997 921.94995 234.65997C 937.2399 234.90997 949.85 247.02997 950.04 261.71997C 950.43726 285.1454 948.7035 308.5586 944.86 331.66998C 943.9709 338.02594 948.2403 343.9564 954.55 345.12997C 964.23 346.70996 967.55 337.75998 967.95 335.43997C 972.00024 311.106 973.83777 286.45554 973.44 261.78998C 973 234.12 950.08 211.7 922.29 211.31zM1044.59 230.45999C 1043.1001 224.20859 1036.9497 220.24063 1030.64 221.45999C 1024.74 222.87 1020.34 229.13998 1021.74 235.40999C 1024.0599 245.88998 1024.12 253.68999 1024.0599 265.40997C 1023.9934 271.86795 1029.172 277.15854 1035.6299 277.22998C 1042.0822 277.22543 1047.3407 272.05136 1047.4498 265.59998C 1047.52 254.93 1047.62 244.21 1044.59 230.46zM1024.59 186.25C 1000.71106 152.3429 962.05646 131.90053 920.58997 131.25C 886.58997 130.82 855.17 143.36 831.76996 166.81C 809.27563 189.15756 796.8916 219.72745 797.49 251.43L797.49 251.43L797.43 261.91C 797.56494 268.3948 802.7009 273.6663 809.18 273.97C 809.2991 274.00974 809.4246 274.0267 809.55 274.02C 815.45 274.02 821.06 268.97 820.81 262.62997L820.81 262.62997L820.87 251.11998C 820.7506 225.72018 830.78424 201.32544 848.74 183.35999C 867.68 164.46999 893.27 154.29999 920.74 154.65999C 954.56 154.70999 986.4 172.01999 1005.85 199.65999C 1007.6247 202.20142 1010.33826 203.93158 1013.3912 204.46823C 1016.4441 205.00488 1019.585 204.30385 1022.12 202.51999C 1027.05 198.78 1028.75 191.56 1024.61 186.25z" stroke="none" fill="#FFFFFF" fill-rule="nonzero" />
	<g clip-path="url(#1)" >
		<g>
            <path d="M554.88 496.56L555.81 492.22L573.5 499.48L586.15 504.05002L588.65 504.85L589.03 506.85L586.5 508.71L595.1 517.23L594.75 520.08997L592.25 519.29L591.71 521.85L587.27 520.1L581.08 515.3L578.31 515.77997L572.92 512.22L571.22 512.66L563.33997 508.3L559.7 504L559.79004 501.08L554.88007 496.55L554.88 496.56z" stroke="none" fill="#FFFFFF" fill-rule="nonzero" fill-opacity="0.24705882" />
            <path d="M586.15 504.05L573.5 499.47998L555.81 492.21997L554.88 496.55997L550.88 500.24997L553.11 502.32996L550.25 505.72995L545.39 497.20996L542.39 488.80997L539.60004 486.87997L536.11005 486.93997L532.73004 482.73996L532.48004 478.93997L530.27 479.26996L529.13 475.81995L526.13 469.81995L524 468.58L528.34 462.03L530.51 453.13998L535.14 447.71L543.3 442L547.94 444.06L551.33 446.91998L554.78 445.78998L566.27 457L562.33 475.4L567.74 477.63L569.2 475.80002L573.05 475.29L577.92 471.29L584.26996 467.84L583.16 474.28L592.08997 477.53L589.24994 490.82L586.14996 504.05002L586.15 504.05z" stroke="none" fill="#FFFFFF" fill-rule="nonzero" fill-opacity="0.24705882" />
            <path d="M522.94 574.72L524.23 569.92L522.42 567.13L521.47 561.58L522.24 558L520.89996 554.24L522.00995 551.54L525.00995 549.77997L524.82996 548.13995L521.54 545L522.07 543.78L518.60004 542.5L515.4 536.21L514 532.72L512.28 530.72L516.43005 527.6L512.85004 523.08997L513.50006 520.02997L513.9601 516.64996L505.89008 514.38995L506.32007 512.38995L502.93005 509.51996L503.15005 504.75995L508.69006 503.80994L511.16006 499.80994L517.42004 503.01993L519.59 501.60992L521.27 498.75992L520.84 491.98993L522.94 492.16992L526.63 488.6899L530.3 486.5299L532.7 482.7699L536.08 486.9699L539.57 486.9099L542.36 488.8399L545.36 497.2399L550.22 505.7599L549.12 507.12988L551.22 511.0499L550.61 515.1999L549.05 516.1999L549.33 518.6599L546.33 524.9799L545.42004 531.7299L546.22003 536.7299L547.57 539.1499L546 543.29L544.27 546.39996L543.7 550.29L544.58 553.68L540.91003 559.58L539.91003 561.51L536 565L531.59 568L527.99005 572.3L522.99005 574.7L522.94 574.72z" stroke="none" fill="#FFFFFF" fill-rule="nonzero" fill-opacity="0.24705882" />
            <path d="M522.94 574.72L521.42 573.06L518.12 571.06L512.02 570.82L507.22003 565.82L501 562.28L494.12 559.47003L489.66 559.06006L482.31 557.22003L481.31 554.59L474.53 551.27L470.08 550.85004L466.65 546.91003L462.25 546.24005L459 547.68L456.19 543.33997L458.39 539.26996L462.15002 537.92993L464.41003 533.6099L463.08005 529.8499L469.39005 521.5699L467.84006 518.8399L473.93005 515.3299L481.93005 510.3299L487.93005 508.6699L494.50006 504.18988L503.28006 499.3899L505.45007 501.71988L502.45007 503.21988L503.20007 504.71988L502.98007 509.4799L506.3701 512.3499L505.9401 514.3499L514.0101 516.6099L513.55005 519.9899L512.9 523.0499L516.48004 527.55994L512.33 530.67993L514.05 532.67993L515.44 536.18994L518.64 542.4799L522.11 543.75995L521.57996 544.9799L524.92 548.0999L525.1 549.7399L522.1 551.49994L520.99 554.19995L522.33 557.95996L521.56 561.54L522.51 567.08997L524.32 569.87994L523.03 574.67993L522.94 574.72z" stroke="none" fill="#FFFFFF" fill-rule="nonzero" fill-opacity="0.24705882" />
            <path d="M511.17 499.78L507.71002 497.17L509.77002 488.79L512.4 484L516.92004 479.09L519.58 471.63998L523.98004 468.56998L526.12006 469.83L529.12006 475.83L530.2601 479.28L532.4701 478.95L532.7201 482.75L530.32007 486.51L526.6501 488.67L523 492.14L520.9 491.96002L521.33 498.73L519.65 501.58002L517.43 503L511.16998 499.79L511.17 499.78z" stroke="none" fill="#FFFFFF" fill-rule="nonzero" fill-opacity="0.24705882" />
		</g>
	</g>
</g>
</svg>