<svg xmlns="http://www.w3.org/2000/svg" xmlns:xlink="http://www.w3.org/1999/xlink" viewBox="0 0 250 250"><defs><style>.a{fill:none;}.b{fill:#02a8f5;}.c{fill:#fff;}.d{clip-path:url(#a);}.e{opacity:0.25;}</style><clipPath id="a"><rect class="a" y="-2367.04" width="1242" height="2208"/></clipPath></defs><circle class="b" cx="125" cy="125" r="125"/><path class="c" d="M121.81,189.44a1,1,0,0,0,1.9.13c2.84-15.16,7-37.37,16.45-46.85,14.55-14.55,39.06-16.38,59.23-19a.72.72,0,0,0,0-1.42l-30.19-4.81c-10.29-2.7-21.53-6.43-29.18-14.08C129.87,93.24,125.8,75.1,123,60.54a1.09,1.09,0,0,0-2.1-.14,268.36,268.36,0,0,1-14.35,35.68c-11.24,18.62-36,22.21-55.44,25.79a1.27,1.27,0,0,0,0,2.51c9.81,1.62,20.78,3.93,30.19,7.24C114.43,142.86,120.79,173.59,121.81,189.44Z"/><g class="d"><g class="e"><path class="c" d="M393.3,124.29l1.85-13.93-3.81-18.43-14.13-7.59L357,90.56l7.33-14.12-1-12.52,13.35.3-.46-12.8-18.53,1.2L333,47.76l-15-3.11L306,46.91l-.17,9.68L290.7,64.2l-14.24,3.92-9.34,9.23-1.5,9L257,94.71l-6.95-4.19-2.44-9.59,8.56-1.88,6.86-12.8-3-2.24,6-6.24,8.24-3.43,9.1-8.7,7.82-7.87-10-1.47,9.28-3.73,10.49.66,16,2.56,17.45,5.12,15.91,6.22,15.15-7.61,7.82-.81,9.31-3L395.68,24l8.19-5,3.3,4.59,14.5,3.13,10.95-8L444.51,7.63,458.8-2l3.34,5.63,18.17,3.26L481.46,17l7.58,7,4.2,7.69-5,7.24-10.1,2.72-.42,9.95-17.54-.41-15,3.16L455.59,67.9,452.89,73l.83,8.34,5.82,1.88-.64,11.27L445.8,108l-16.59,4-14.13,14.37L401,127.93l-7.72-3.64Z"/></g></g></svg>