<?xml version="1.0" standalone="no"?>
<!DOCTYPE svg PUBLIC "-//W3C//DTD SVG 1.0//EN" "http://www.w3.org/TR/2001/REC-SVG-20010904/DTD/svg10.dtd">
<svg xmlns="http://www.w3.org/2000/svg" xmlns:xlink="http://www.w3.org/1999/xlink" id="body_1" width="13" height="10">

<defs>
        <clipPath  id="1">

            <path clip-rule="evenodd" d="M-992 -2367.04L250 -2367.04L250 -159.04004L-992 -159.04004z" />        </clipPath>
</defs>

<g transform="matrix(0.04 0 0 0.04 1.5 -0)">
    <path d="M125 0C 175.55779 0 221.13731 30.455276 240.48494 77.164566C 259.83258 123.87387 249.13809 177.6386 213.38834 213.38834C 177.6386 249.13809 123.87387 259.83258 77.16457 240.48494C 30.455276 221.13731 0 175.55779 0 125C 0 55.9644 55.9644 0 125 0zM151.6 58.4C 147.65128 62.338417 144.9609 67.36067 143.87001 72.83C 123.64792 65.19759 100.83011 70.11726 85.549576 85.40425C 70.26906 100.69124 65.35904 123.51113 73 143.73C 59.059628 146.48871 49.33149 159.16399 50.271946 173.34355C 51.212402 187.52312 62.529327 198.8026 76.71193 199.69604C 90.89453 200.58951 103.5375 190.81943 106.25 176.87C 126.41739 184.39272 149.11966 179.45952 164.3464 164.24568C 179.57315 149.03185 184.5256 126.33376 177.01999 106.159996C 188.93315 103.842285 198.04068 94.18407 199.65582 82.15548C 201.27095 70.1269 195.03378 58.40828 184.15398 53.030052C 173.27417 47.651825 160.17607 49.81243 151.6 58.4zM184.6 65.03C 190.28702 70.71665 191.69594 79.40491 188.09746 86.59733C 184.49898 93.78975 176.70096 97.87163 168.74 96.729996C 168.46446 96.694954 168.18556 96.694954 167.91 96.729996C 164.42938 96.27076 160.97464 97.74207 158.8939 100.56981C 156.81316 103.397545 156.43614 107.13356 157.91 110.31999C 164.201 123.932236 161.3336 140.0235 150.72783 150.62479C 140.12207 161.22609 124.0296 164.08673 110.42 157.79C 107.32781 156.36575 103.713684 156.67812 100.91171 158.61179C 98.10974 160.54546 96.53546 163.81366 96.77 167.20999C 96.721146 167.54153 96.721146 167.87845 96.77 168.20999C 98.07454 176.1939 94.08315 184.10844 86.88769 187.80573C 79.69222 191.50299 70.93363 190.1398 65.20219 184.43059C 59.47075 178.72137 58.07354 169.96814 61.74282 162.75836C 65.41211 155.54858 73.31108 151.52649 81.299995 152.79999C 81.92409 152.93843 82.56078 153.01215 83.2 153.01999C 86.507065 153.04266 89.59491 151.3685 91.38041 148.58476C 93.1659 145.80101 93.39978 142.29631 92 139.3C 85.69806 125.68455 88.5625 109.58319 99.17358 98.976585C 109.78465 88.36997 125.88721 85.51231 139.5 91.82C 141.81644 92.894485 144.46503 93.00392 146.86221 92.12421C 149.2594 91.24449 151.20847 89.4478 152.28 87.13C 153.11812 85.31182 153.37311 83.27885 153.01 81.31C 151.66061 73.29645 155.64684 65.329865 162.8695 61.6055C 170.09218 57.881134 178.89404 59.253536 184.64 65zM110.5 110.31C 104.578606 116.22969 102.8065 125.1336 106.010124 132.86938C 109.213745 140.60518 116.76209 145.64922 125.135 145.64922C 133.5079 145.64922 141.05626 140.60518 144.25989 132.86938C 147.4635 125.1336 145.6914 116.22969 139.77 110.31C 131.68663 102.22896 118.583374 102.22896 110.5 110.31z" stroke="none" fill="#02A8F5" fill-rule="nonzero" />
	<g clip-path="url(#1)" >
		<g>
            <path d="M-7.3 228.61L-18.2 252.54001L-32.78 268.76L-32.059998 288.61002L-25.549997 295.17L-19.93 313L-34.69 317L-40.69 316.43L-58.18 324.43L-74.32 326.58L-72.1 308.46L-78.1 301.1L-91.759995 313.88L-111 324.69L-111.49 318.17L-119.93 323.44L-110.53 308.72L-119.93 309.06L-127.59 292.6L-136.2 300.24002L-135.86 288.19003L-130.97 278.60004L-143.09 276.17004L-152.34 266.30005L-163.25 261.21005L-168.55 244.92004L-176.61 238.92004L-181.76 226.56004L-173.76 229.67004L-167.43999 223.42004L-156.01999 228.24005L-147.82999 216.17004L-153.9 207.50005L-165.98999 198.50005L-176.82999 195.50005L-178.07999 182.50005L-186.07999 179.39005L-196.85999 192.33005L-199.32 205L-206.5 208.93L-211 222.4L-198.63 231.89L-204.63 247.54L-204.82 256.69998L-213.22 263.02L-218.56 245.68999L-227.79 243.40999L-236.51 233.79L-248.34999 231.87L-256.81 250.73999L-272.81 263.34998L-287.7 278.27L-299.97 293.09998L-312.36002 297.74L-317.36002 290.59L-326.02002 297.18L-330.87003 307.56L-344.38004 310.13998L-357.68002 310.88998L-359.52002 303.62997L-377.74002 298.8L-400.15002 293.59998L-420.32004 285.43997L-436.32004 269.27997L-451.32004 252.56998L-453.73004 236.69998L-461.31003 229.38998L-456.31003 223.19998L-464.64 216.95998L-473.94 198.46997L-476.84 183.40997L-494.66998 182.22998L-496.00998 174.16998L-483.93997 167.97998L-477.58997 170.09998L-472.83997 149.52997L-475.93997 143.36996L-472 127.8L-465.5 119.450005L-455.81 119.89001L-453.18 105.89001L-447.18 97.57001L-456.44998 87.18001L-459.03998 73.420006L-459.18997 61.920006L-463.62997 55.020004L-466.22998 48.020004L-485.4 54L-485.16 46.14L-481.32 43.91L-474.32 42.35L-479.64 32.6L-476.75 25.699999L-470.91 13.699999L-457 15.33L-454 5.54L-438.82 -1.29L-442.22 -15.81L-422.44 -18.36L-407.94 -7.9000006L-394.18 -10.75L-381.50998 -14.61L-377.84998 -21.8L-368.17996 -29.22L-369.77997 -37.22L-367.77997 -53.22L-360.61996 -50.34L-350.50998 -60.12L-357.86996 -68.22L-354.40997 -81.16L-365.40997 -94.89L-378.31998 -104.619995L-380.80997 -115.509995L-376.62997 -122.979996L-376.37997 -130.58L-373 -142L-377.42 -148.64L-390.21 -155L-377.03998 -159.41L-380.99 -167.41L-379.77 -184.41L-376.77 -201.52L-369.66998 -214.85L-366.96997 -226.72L-359.11 -233.54001L-357.11 -242.24L-346.75 -259.36002L-341.98 -272.08002L-346.08002 -276.90002L-335.14 -299.79004L-325.28003 -316.36005L-307.04004 -325.36005L-309.04004 -314.57004L-300.48004 -316.45004L-292.15005 -324.59006L-278.64005 -327.18005L-259.4 -348L-253.76999 -373L-240.98999 -381.05L-233.59999 -393.61L-229.04 -397.69998L-219.81 -402.69998L-213.33 -404.24L-209.76 -414.05L-211.76 -417.9L-196.39 -426.57L-192.63 -423.83002L-188.82 -427.1L-180.6 -416.68L-176.90001 -408.44L-178.70001 -393.21L-167.94002 -392.03L-165.50002 -375.38L-158.62001 -373.02002L-149.08002 -355.32L-145.41002 -354.93L-135.91002 -359.72L-131.45001 -352.3L-103.56001 -376.3L-96.17001 -352.78L-92.320015 -347.69L-62.910015 -351.37L-67.37002 -322.96L-59.64002 -319.06L-43.64002 -326.18L-41.71002 -316.31L-30.560019 -311.75L-29.09002 -307.35L-40.27002 -298.35L-48.35002 -283.15L-53.6 -261.6L-66.37 -246L-85.3 -241.66L-92.3 -233.56L-94.560005 -216.48L-96 -197.57L-105.69 -176.29001L-107.200005 -167.35L-121.87 -153.74L-131.35 -141.1L-130.3 -126.50001L-133.14 -96.84001L-130.19 -80.22001L-132 -65.51L-141.29 -40.590004L-140.7 -24.390003L-145.34999 -15.600003L-136 -4.43L-129.58 14.17L-128.38 34L-122.170006 46.59L-113.11001 51.49L-107.11001 57.550003L-101.810005 52.390003L-95.810005 44.58L-85.060005 45.5L-86.32001 53.92L-89.16 69.45L-79.98 77.45L-73.12 94L-62 97L-57.06 103.36L-54.36 121L-55.77 132.56L-50.1 130.26L-39.289997 111.03999L-34.559998 97.26999L-40.8 91L-38.71 76.54L-41 70.58L-34.76 63L-18.329998 61.62L-6.1099977 59.62L-11.679998 79.18L-1.079998 90.3L6.050002 85.07L23.050003 83.93L28.400003 87.14L37 80.3L40.31 70.5L48.56 74.65L51.920002 87.86L53 104L48.85 126.64L43.7 142.55L28.240002 163.25L21.550001 173.43L12.050001 185.54L-3 202.31L-7.3 228.61z" stroke="none" fill="#FFFFFF" fill-rule="nonzero" fill-opacity="0.24705882" />
            <path d="M-9.12 -109.71L-5.6099997 -99.38L-3 -84.57L-4.82 -70.38L-11.77 -52.869995L-19.66 -39.769997L-19.22 -27.769997L-21.22 -9.909996L-16.699999 -0.65999603L-13.529999 14.650004L-1.59 25.74L-3.1 34.68L-8.21 45.07L-6.11 59.63L-18.33 61.63L-34.76 63L-41 70.58L-38.69 76.51L-40.8 91L-34.559998 97.31L-39.289997 111.08L-50.1 130.27L-55.769997 132.57L-54.36 121L-57.09 103.32L-62 97L-73.09 94L-80 77.48L-89.18 69.48L-86.340004 53.950005L-85.08 45.530006L-95.83 44.61001L-101.83 52.42001L-107.130005 57.58001L-113.130005 51.520008L-122.200005 46.620007L-128.38 34L-129.63 14.17L-136 -4.43L-145.3 -15.6L-140.65001 -24.39L-141.24 -40.59L-132 -65.51L-130.18 -80.22L-133.12999 -96.840004L-130.29 -126.5L-131.34 -141.1L-121.86 -153.74L-107.19 -167.35L-105.68 -176.29001L-96 -197.57L-94.6 -216.45001L-92.34 -233.53001L-85.34 -241.63002L-66.37 -246L-53.6 -261.6L-48.37 -283.24L-40.29 -298.44L-29.11 -307.44L-25.79 -295.27L-11.320001 -278.27L-3.1800003 -263.12997L-7.6400003 -249.12997L-7.4100003 -235.53998L-14.530001 -222.72998L-14.580001 -209.64998L-18 -188.64998L-6.2799997 -182.79997L2.7200003 -193.58997L19.560001 -190.79997L13.6900015 -172.27997L12.060001 -159.66997L8.54 -142L-3.1400003 -132.16L-9.14 -109.71001L-9.12 -109.71z" stroke="none" fill="#FFFFFF" fill-rule="nonzero" fill-opacity="0.24705882" />
            <path d="M-122.71 327.2L-119.97 323.44L-111.53 318.17L-111.04 324.69L-91.82 313.79L-78.16 301L-72.16 308.36L-74.380005 326.47998L-58.240005 324.33L-40.750008 316.33L-34.750008 316.9L-19.93 313L-25.55 295.16L-32.059998 288.6L-32.78 268.75L-18.199999 252.53L-7.299999 228.6L-3 202.31L12.08 185.54L21.58 173.43L28.27 163.25L43.73 142.55L48.91 126.68L53 104L51.92 87.86L48.56 74.65L40.31 70.5L37 80.3L28.36 87.15L23 83.94L6 85.08L-1.1300001 90.310005L-11.7300005 79.19L-6.1600003 59.630005L-8.26 45.070004L-3.1 34.68L-1.5899999 25.740002L-13.5 14.66L-16.67 -0.65L-21.19 -9.9L-19.19 -27.76L-19.630001 -39.760002L-11.740002 -52.86L-4.7400017 -70.37L-3 -84.57L-5.61 -99.38L-9.12 -109.71L-3.12 -132.16L8.53 -142L12.08 -159.65L13.71 -172.26L19.58 -190.78L2.74 -193.57L-6.26 -182.78001L-18 -188.63L-14.58 -209.63L-14.53 -222.71L-7.41 -235.52L-7.64 -249.11L-3.19 -263.11L-11.32 -278.25L-25.79 -295.25L-29.11 -307.42L-30.58 -311.82L-21.07 -323.67L-24 -339.3L-17.26 -348.18L-14.51 -358.74L-5.51 -369.74L-2.9500003 -378.47L-7.7100005 -394.47L0.65 -416.82L-7.81 -419.39L31.19 -468.66L42.68 -491L47.98 -489.1L32 -512.62L30.8 -524.08L39.309998 -527.27L44.08 -546L39.76 -557.1L55.76 -569.18L58.3 -593.07L51.47 -600.93L44.47 -629.18L40.39 -633.48L33.3 -677.68L27.68 -681.14L17.19 -667.42L12.630001 -677.70996L8.630001 -673.63995L0.43 -682.5L-9.91 -657.5L-17.51 -657.75L-17.39 -676.06L-22.39 -677.97L-14.73 -697.33997L-15.73 -717.43994L-23 -728.72L-17 -746.2L-7 -777.94L-8.2 -797.77L-26.470001 -818.29004L-38.16 -816.29004L-29.33 -832.29004L-47.559998 -837.38007L-50.559998 -832.57007L-63.26 -836.57007L-73.729996 -822.3301L-72.85999 -812.9501L-83.42999 -801.32007L-91.759995 -800.50006L-94.369995 -793.0801L-104.17 -796.38007L-107.17 -808.30005L-124.49 -817.09L-139.84999 -800.84L-150.78 -799.4L-169.68 -779.62L-176.68 -785.91L-180.90999 -787.31995L-179.82999 -793.63995L-170.31999 -805.23L-169.93999 -809.16L-166.35999 -818.70996L-159.76999 -824.43994L-156.85999 -837.87994L-159.73999 -845.3599L-156.73999 -848.6099L-149.37 -868.74994L-147.48999 -888.94995L-145.04999 -901.06995L-147.18 -902.06995L-133.79 -922.42993L-128.11 -938.8499L-118.93 -952.5199L-115.93 -943.2099L-102.05 -935.3499L-95.83 -944.1999L-88.39 -926.4299L-84.77 -927.60986L-87.77 -938.73987L-80.77 -940.03986L-75.869995 -934.46985L-74.369995 -921.96985L-68.85 -921.38983L-59.85 -926.38983L-51.37 -923.2998L-46.449997 -924.5198L-41.949997 -944.81976L-42.489998 -952.37976L-35.26 -962.05975L-38.21 -971.36975L-33.1 -989.06976L-29.98 -989.44977L-23.14 -995.7098L-22.73 -1005.92975L-17.84 -1008.19977L-14.360001 -1005.9698L-5.580001 -1016.2198L-7.580001 -1028.9598L-6.940001 -1032.9598L-10.690001 -1035.4398L-10.34 -1040.1598L-0.07999992 -1045.7598L5 -1049.8698L6.64 -1047.8698L6.49 -1037.6598L10.03 -1033.6598L14.03 -1038.2498L16.58 -1047.2498L19.46 -1047.3597L22.13 -1052.9397L32.22 -1063.2498L36.46 -1061.5697L43.93 -1064.7197L47.13 -1077.3898L45.08 -1083.5897L48.910004 -1086.0797L52.320004 -1100.0797L61.530003 -1105.8997L69 -1108.7897L72.16 -1115.4397L77.28001 -1111.4397L91.670006 -1118.2397L100.8 -1111.7698L103.33 -1114.2197L112.33 -1102.7798L119.130005 -1117.1498L139.22 -1096.9498L148.42 -1088.3998L156.08 -1086.3198L165.56 -1106.0198L175.56 -1104.0198L186 -1117.06L198.69 -1113.06L214.53 -1130.63L225.77 -1123.45L234.77 -1142.87L244.66 -1144.27L246.27 -1135.96L252.36 -1119.45L257.67 -1109.97L250 -1089.57L247.71 -1058.8899L233.20001 -1012.0799L226.79001 -1001.0799L217.27 -996.8099L209.35 -1006.1999L204.82 -1023.0299L213.82 -1076.1799L211.72 -1083.69L201.78 -1062.1499L195.08 -1059.2899L180.08 -1053.7799L176.22 -1037.69L172.66 -1027.62L179.96 -1028.41L185.90001 -1037.51L191.85 -1032.24L183.55 -1001.6L187.55 -993.38L198.11 -1005.01L212.98 -984.36L212.58 -973.63L208.06 -961.43L218.06 -958.92L226.23 -971.51L234.92 -969.73L243.39 -981.27997L240 -949L232.51 -939.31L230.18999 -952.57L222.18999 -949.14L217.61998 -938.25L221.31998 -922.7L230.41998 -924.07L238.19998 -904.22003L251.38998 -872.22003L251.16998 -863.84L242.31998 -870.06L241.25 -856L246.42 -850.7L247.42 -830.60004L253.9 -817.76L245.9 -800.76L255.56999 -793.76L263.1 -809.76L267.91 -806.76L264.97 -772.65L261.15 -755.26L246.72 -706.09L254.14 -703.48004L261.14 -719.17004L263.93002 -721.36005L265.00003 -735.2601L271.51004 -736.0201L282 -748.68L286.34 -751.68L299 -740.93L311.48 -742.93L314.30002 -737.27997L311.72003 -707.37994L304.42004 -699.52997L293.42004 -701.52997L289.33005 -691.70996L280 -681.4L261 -670.78L253 -652.97003L243.38 -651.31006L222.68001 -659.7101L221.09001 -645.7901L226.36002 -644.6801L230.36002 -634.89014L237.36002 -636.45013L244.60002 -631.7401L252.27002 -643.5301L261.64 -644.9101L262.23 -657.4901L269.79 -665.3401L283.85 -666.9001L294.31 -688.7201L304 -676.78L313.31 -686.78L313.76 -681.83L306.84 -670.60004L293.72 -664.60004L291.58 -651.45L301.06998 -663.82L307.06998 -650.7L308.61996 -629.57L301.69995 -604.22003L312.26996 -622.65L326.12 -636L329.29 -620.69L329.67 -595.86L332.24002 -575.56L338.50003 -590.43L347.24002 -587.35L348.16003 -576.35L354.89005 -563.77997L357.60004 -539.55L361.24005 -540.20996L363.16 -516L360.7 -504.66L368 -490.81L368.4 -472.52L374.00998 -476.63998L379.31998 -474.47998L385.12997 -458.47998L381.72998 -436.65L378.27 -445.65L377.33 -421.03L371.44998 -410.1L374.77 -405.25L375.53998 -376.77L370.36996 -346.25L366.18997 -331.72L359.64 -325L355.49002 -331.13L347.55002 -348.13L343.55002 -350.86002L342.25003 -336.17L339.54004 -317.24002L342.38004 -311.07L334.31003 -295.61002L337.73004 -295.21002L340.31003 -281.7L339.51004 -246.11002L333.60004 -235.96002L333.16003 -190.44002L342.89005 -203.34001L341.44003 -178.45001L342.28003 -162.53001L336.17004 -136.42001L328.17004 -120.42001L322.46005 -119.17001L312.46005 -92.390015L307.83005 -68.69002L321.83 -77L316.71 -52.23L320.84 -39.3L317.59 -13.559999L321.34 -11.08L320.23 8.83L332.14 -16.17L338.08002 -10.889999L333 94.92L325.66 115.85L316.76 158.79L320.76 197.34999L319.29 221.73L314.17 239.17L304.47 252.86L301.24 272.07L304.49 282.15L305.41 300.41998L303.68 324.8L305.9 342.8L294.72 380.59998L299.4 386.96997L307.47 364.43997L313.57 359.51996L311.1 399.61996L312.64 420.47998L307.64 461.97998L302.27002 486.97998L247.70001 575.77997L240.98001 570.77997L241.44002 554.55L234.38002 576.25L223 600.49L219.48 611.6L213.56999 621.75L209.74998 624.5L211.93999 598.27L200.07999 581.44L198 573.67L187.14 569.88L177.5 565L170.61 569.7L180.23 539.28L167.62999 523.78L172.93 511.30002L166 507.89L167.69 489.52002L157.81 498L142.76 501.42L136.76 509.22L134 527.09L112.14 551.68005L111 541L98.26 550.36L91.92 562.88L83.35 550.11L65.57 564.88L61.11 550.14L45.35 562.48L30 558.59L40.69 543.29004L63 515L97 471.4L118 453.67L127.41 453.59003L134.41 446.01004L138.34 460.77005L158 459.54L173.74 460.80002L186.25 466.88L207.04001 448.88L205.29001 436.65L193 445.45L176 436.66L193.64 403.85L187.55 380.28L161.96 381.2L153.29001 401.65002L148.29001 379.65002L146.11 363L156.93 351.36L158.51999 330.36L150.70999 324.11L151.88998 284.58L146.19998 250.26999L115.30998 242.26999L77.75 230.49L76.44 252L67.060005 267.25L64.21 282.5L72.09 283.26L71.57 297.92L55.29 332L42.15 344.76L26.09 349L7.29 364.07L-18.07 378.85L-41.93 377.1L-53 380.9L-72.520004 376.38L-91.78001 371.58002L-101.53001 369.58002L-111.630005 357.92L-112.18001 349.84003L-104.58001 335.96002L-117.240005 325.7L-122.71 327.2z" stroke="none" fill="#FFFFFF" fill-rule="nonzero" fill-opacity="0.49803922" />
            <path d="M122.63 -421.68L-25.74 -343.2L-98.32 -480.75L-260.55 -347.13L-451.57 -274.99L-598.06 -259.55L-277.08 -108.85L-467.16 25.04" stroke="#424242" stroke-width="1" stroke-linecap="square" stroke-dasharray="2,2" fill="none" />
		</g>
	</g>
</g>
</svg>