<?xml version="1.0" standalone="no"?>
<!DOCTYPE svg PUBLIC "-//W3C//DTD SVG 1.0//EN" "http://www.w3.org/TR/2001/REC-SVG-20010904/DTD/svg10.dtd">
<svg xmlns="http://www.w3.org/2000/svg" xmlns:xlink="http://www.w3.org/1999/xlink" id="body_1" width="40" height="30">

<g transform="matrix(0.05859375 0 0 0.05859375 5.000001 -0)">
    <path d="M0 80C 0 35.81722 35.81722 0 80 0L80 0L432 0C 476.18277 0 512 35.81722 512 80L512 80L512 432C 512 476.18277 476.18277 512 432 512L432 512L80 512C 35.81722 512 0 476.18277 0 432L0 432L0 80z" stroke="none" fill="#02A8F5" fill-rule="nonzero" />
    <path d="M456 256C 456 311.2285 436.4738 358.36893 397.42136 397.42136C 358.36893 436.4738 311.2285 456 256 456C 200.77153 456 153.63107 436.4738 114.57864 397.42136C 75.526215 358.36893 56.000004 311.2285 56 256C 56.000004 200.77153 75.526215 153.63107 114.57864 114.57864C 153.63107 75.526215 200.77153 56.000004 256 56C 311.2285 56.000004 358.36893 75.526215 397.42136 114.57864C 436.4738 153.63107 456 200.77153 456 256C 456 258.32736 455.9594 260.654 455.87817 262.9799" stroke="none" fill="#FFFFFF" fill-rule="nonzero" />
    <path d="M250.68 363.39C 250.7342 364.1851 251.3653 364.8191 252.16014 364.87692C 252.95499 364.93478 253.67122 364.39886 253.84 363.62003C 258.58 338.34003 265.46 301.34003 281.26 285.54004C 305.52002 261.28003 346.36002 258.24005 379.98 253.84004C 380.56238 253.74709 380.99088 253.24477 380.99088 252.65504C 380.99088 252.06532 380.56238 251.563 379.98 251.47005L379.98 251.47005L329.66 243.47005C 312.51 238.94 293.78 232.74 281 220C 264.08 203.07 257.31 172.84 252.57 148.58C 252.41841 147.76677 251.73479 147.1598 250.90933 147.10556C 250.0839 147.05132 249.3267 147.56361 249.07 148.35C 245.24 160.20001 236.44 185.47 225.15001 207.81C 206.42001 238.81 165.15001 244.81 132.75 250.81C 131.72205 250.96965 130.96385 251.8547 130.96385 252.89499C 130.96385 253.93527 131.72205 254.82033 132.75 254.98C 149.11 257.69 167.39 261.53 183.07 267.06C 238.38 285.77 249 337 250.68 363.39z" stroke="none" fill="#02A8F5" fill-rule="nonzero" />
</g>
</svg>